# Blender v2.78 (sub 0) OBJ File: ''
# www.blender.org
mtllib cross.mtl
o Curve_Mesh
v -0.042334 0.050000 -0.380927
v 0.042334 0.050000 -0.380927
v 0.042334 0.050000 -0.042325
v 0.381008 0.050000 -0.042325
v 0.381008 0.050000 0.042325
v 0.042334 0.050000 0.042325
v 0.042334 0.050000 0.380927
v -0.042334 0.050000 0.380927
v -0.042334 0.050000 0.042325
v -0.381008 0.050000 0.042325
v -0.381008 0.050000 -0.042325
v -0.042334 0.050000 -0.042325
v -0.042334 0.350000 0.042325
v 0.042334 0.350000 0.042325
v 0.042334 0.350000 -0.042325
v -0.042334 0.350000 -0.042325
v -0.042334 -0.050000 -0.380927
v 0.042334 -0.050000 -0.380927
v 0.042334 -0.050000 -0.042325
v 0.381008 -0.050000 -0.042325
v 0.381008 -0.050000 0.042325
v 0.042334 -0.050000 0.042325
v 0.042334 -0.050000 0.380927
v -0.042334 -0.050000 0.380927
v -0.042334 -0.050000 0.042325
v -0.381008 -0.050000 0.042325
v -0.381008 -0.050000 -0.042325
v -0.042334 -0.050000 -0.042325
v -0.042334 -0.350000 0.042325
v 0.042334 -0.350000 0.042325
v 0.042334 -0.350000 -0.042325
v -0.042334 -0.350000 -0.042325
vn 1.0000 0.0000 0.0000
vn -1.0000 0.0000 0.0000
vn 0.0000 0.0000 1.0000
vn 0.0000 0.0000 -1.0000
vn 0.0000 1.0000 0.0000
vn 0.0000 -1.0000 0.0000
usemtl SVGMat
s off
f 6//1 3//1 15//1 14//1
f 7//1 23//1 22//1 6//1
f 11//2 27//2 26//2 10//2
f 5//1 21//1 20//1 4//1
f 10//3 26//3 25//3 9//3
f 3//1 19//1 18//1 2//1
f 6//3 22//3 21//3 5//3
f 12//4 28//4 27//4 11//4
f 9//2 25//2 24//2 8//2
f 4//4 20//4 19//4 3//4
f 2//4 18//4 17//4 1//4
f 1//2 17//2 28//2 12//2
f 11//5 10//5 9//5 12//5
f 8//5 7//5 6//5 9//5
f 3//5 6//5 5//5 4//5
f 12//5 3//5 2//5 1//5
f 13//5 14//5 15//5 16//5
f 3//4 12//4 16//4 15//4
f 9//3 6//3 14//3 13//3
f 12//2 9//2 13//2 16//2
f 22//1 30//1 31//1 19//1
f 27//6 28//6 25//6 26//6
f 24//6 25//6 22//6 23//6
f 19//6 20//6 21//6 22//6
f 28//6 17//6 18//6 19//6
f 29//6 32//6 31//6 30//6
f 19//4 31//4 32//4 28//4
f 25//3 29//3 30//3 22//3
f 28//2 32//2 29//2 25//2
f 8//3 24//3 23//3 7//3
